<?xml version="1.0" encoding="UTF-8"?>
<svg xmlns="http://www.w3.org/2000/svg" xmlns:xlink="http://www.w3.org/1999/xlink" width="300pt" height="243.75pt" viewBox="0 0 300 243.75" version="1.2">
<defs>
<clipPath id="clip1">
  <path d="M 0.152344 0 L 299.84375 0 L 299.84375 243.5 L 0.152344 243.5 Z M 0.152344 0 "/>
</clipPath>
<clipPath id="clip2">
  <path d="M 0.152344 185 L 299.84375 185 L 299.84375 243.5 L 0.152344 243.5 Z M 0.152344 185 "/>
</clipPath>
<clipPath id="clip3">
  <path d="M 216 0 L 242.929688 0 L 242.929688 33 L 216 33 Z M 216 0 "/>
</clipPath>
<clipPath id="clip4">
  <path d="M 124 187 L 132 187 L 132 194.246094 L 124 194.246094 Z M 124 187 "/>
</clipPath>
<clipPath id="clip5">
  <path d="M 137 187 L 151 187 L 151 194.246094 L 137 194.246094 Z M 137 187 "/>
</clipPath>
</defs>
<g id="surface1">
<g clip-path="url(#clip1)" clip-rule="nonzero">
<path style=" stroke:none;fill-rule:nonzero;fill:rgb(100%,100%,100%);fill-opacity:1;" d="M 0.152344 0 L 299.847656 0 L 299.847656 250.242188 L 0.152344 250.242188 Z M 0.152344 0 "/>
<path style=" stroke:none;fill-rule:nonzero;fill:rgb(100%,100%,100%);fill-opacity:1;" d="M 0.152344 0 L 299.847656 0 L 299.847656 243.5 L 0.152344 243.5 Z M 0.152344 0 "/>
<path style=" stroke:none;fill-rule:nonzero;fill:rgb(100%,100%,100%);fill-opacity:1;" d="M 0.152344 0 L 299.847656 0 L 299.847656 243.5 L 0.152344 243.5 Z M 0.152344 0 "/>
</g>
<g clip-path="url(#clip2)" clip-rule="nonzero">
<path style=" stroke:none;fill-rule:nonzero;fill:rgb(59.999084%,79.998779%,38.819885%);fill-opacity:1;" d="M 31.1875 210.285156 C 20.636719 214.214844 10.683594 219.183594 2.90625 226.265625 C -10.367188 238.351562 2.519531 249.082031 18.472656 248.589844 C 31.894531 248.171875 45.078125 246.535156 58.457031 247.3125 C 121.933594 251.105469 185.726562 251.105469 249.273438 247.246094 C 259.933594 246.597656 305.332031 256.261719 301.878906 235.15625 C 301.027344 229.9375 298.875 224.929688 295.667969 220.714844 C 292.585938 216.65625 288.589844 213.371094 284.398438 210.460938 C 256.460938 191.035156 219.675781 190.3125 186.9375 187.304688 C 172.960938 186.019531 158.945312 184.800781 144.914062 185.097656 C 118.628906 185.652344 92.824219 191.535156 67.769531 199.128906 C 56.410156 202.570312 43.398438 205.730469 31.1875 210.285156 Z M 31.1875 210.285156 "/>
</g>
<path style=" stroke:none;fill-rule:nonzero;fill:rgb(100%,84.309387%,50.979614%);fill-opacity:1;" d="M 127.726562 118.625 L 127.726562 141.691406 L 107.988281 141.691406 L 107.988281 154.871094 L 140.882812 154.871094 L 140.882812 118.625 L 127.726562 118.625 "/>
<path style=" stroke:none;fill-rule:nonzero;fill:rgb(100%,84.309387%,50.979614%);fill-opacity:1;" d="M 167.199219 177.9375 L 154.042969 118.625 L 170.488281 118.625 L 183.648438 177.9375 L 167.199219 177.9375 "/>
<path style=" stroke:none;fill-rule:nonzero;fill:rgb(100%,84.309387%,50.979614%);fill-opacity:1;" d="M 177.066406 108.738281 L 229.699219 108.738281 C 233.335938 108.738281 236.277344 105.792969 236.277344 102.148438 L 236.277344 79.082031 L 223.121094 79.082031 L 223.121094 95.558594 L 177.066406 95.558594 L 177.066406 108.738281 "/>
<path style=" stroke:none;fill-rule:nonzero;fill:rgb(100%,84.309387%,50.979614%);fill-opacity:1;" d="M 94.832031 121.917969 L 94.832031 108.738281 L 110.929688 108.738281 C 114.207031 108.738281 117.238281 106.5 117.765625 103.253906 C 118.433594 99.125 115.273438 95.558594 111.277344 95.558594 L 88.25 95.558594 C 84.613281 95.558594 81.671875 98.507812 81.671875 102.148438 L 81.671875 121.917969 L 94.832031 121.917969 "/>
<path style=" stroke:none;fill-rule:nonzero;fill:rgb(97.648621%,54.899597%,58.81958%);fill-opacity:1;" d="M 147.460938 39.542969 C 131.65625 25.523438 104.054688 25.523438 88.25 39.542969 C 72.445312 53.558594 75.734375 78.246094 91.539062 92.261719 L 147 141.691406 L 200.09375 92.261719 C 215.898438 78.246094 219.1875 53.558594 203.382812 39.542969 C 187.578125 25.523438 163.265625 25.523438 147.460938 39.542969 "/>
<path style=" stroke:none;fill-rule:nonzero;fill:rgb(89.019775%,24.308777%,36.079407%);fill-opacity:1;" d="M 78.140625 59.3125 L 213.496094 59.3125 C 212.996094 54.664062 211.503906 50.171875 208.949219 46.132812 L 82.6875 46.132812 C 80.128906 50.171875 78.640625 54.664062 78.140625 59.3125 "/>
<path style=" stroke:none;fill-rule:nonzero;fill:rgb(18.429565%,24.308777%,30.979919%);fill-opacity:1;" d="M 137.59375 79.082031 C 137.59375 82.726562 134.652344 85.671875 131.015625 85.671875 C 127.378906 85.671875 124.4375 82.726562 124.4375 79.082031 C 124.4375 75.441406 127.378906 72.492188 131.015625 72.492188 C 134.652344 72.492188 137.59375 75.441406 137.59375 79.082031 "/>
<path style=" stroke:none;fill-rule:nonzero;fill:rgb(18.429565%,24.308777%,30.979919%);fill-opacity:1;" d="M 170.488281 79.082031 C 170.488281 82.726562 167.546875 85.671875 163.910156 85.671875 C 160.273438 85.671875 157.332031 82.726562 157.332031 79.082031 C 157.332031 75.441406 160.273438 72.492188 163.910156 72.492188 C 167.546875 72.492188 170.488281 75.441406 170.488281 79.082031 "/>
<path style=" stroke:none;fill-rule:nonzero;fill:rgb(18.429565%,24.308777%,30.979919%);fill-opacity:1;" d="M 147.460938 112.035156 C 146.613281 112.035156 145.777344 111.710938 145.136719 111.070312 L 135.269531 101.183594 C 133.984375 99.894531 133.984375 97.8125 135.269531 96.523438 C 136.554688 95.238281 138.636719 95.238281 139.917969 96.523438 L 147.460938 104.078125 L 155.003906 96.523438 C 156.289062 95.238281 158.371094 95.238281 159.65625 96.523438 C 160.941406 97.8125 160.941406 99.894531 159.65625 101.183594 L 149.789062 111.070312 C 149.144531 111.710938 148.308594 112.035156 147.460938 112.035156 "/>
<g clip-path="url(#clip3)" clip-rule="nonzero">
<path style=" stroke:none;fill-rule:nonzero;fill:rgb(89.019775%,24.308777%,36.079407%);fill-opacity:1;" d="M 242.859375 19.769531 C 242.859375 27.054688 236.972656 32.953125 229.699219 32.953125 C 222.425781 32.953125 216.542969 27.054688 216.542969 19.769531 C 216.542969 12.484375 229.699219 0 229.699219 0 C 229.699219 0 242.859375 12.484375 242.859375 19.769531 "/>
</g>
<path style=" stroke:none;fill-rule:nonzero;fill:rgb(89.019775%,24.308777%,36.079407%);fill-opacity:1;" d="M 78.382812 158.164062 C 78.382812 165.453125 72.484375 171.347656 65.226562 171.347656 C 57.964844 171.347656 52.066406 165.453125 52.066406 158.164062 C 52.066406 150.878906 65.226562 138.394531 65.226562 138.394531 C 65.226562 138.394531 78.382812 150.878906 78.382812 158.164062 "/>
<path style=" stroke:none;fill-rule:nonzero;fill:rgb(91.369629%,44.309998%,19.219971%);fill-opacity:1;" d="M 101.410156 168.050781 L 94.832031 168.050781 L 94.832031 141.691406 L 107.988281 141.691406 L 107.988281 161.460938 C 107.988281 165.105469 105.046875 168.050781 101.410156 168.050781 "/>
<path style=" stroke:none;fill-rule:nonzero;fill:rgb(91.369629%,44.309998%,19.219971%);fill-opacity:1;" d="M 193.515625 191.117188 L 167.199219 191.117188 L 167.199219 177.9375 L 186.9375 177.9375 C 190.574219 177.9375 193.515625 180.882812 193.515625 184.527344 L 193.515625 191.117188 "/>
<g clip-path="url(#clip4)" clip-rule="nonzero">
<path style=" stroke:none;fill-rule:nonzero;fill:rgb(95.289612%,73.329163%,34.899902%);fill-opacity:1;" d="M 131.015625 194.414062 L 124.4375 194.414062 L 124.4375 187.820312 L 131.015625 187.820312 L 131.015625 194.414062 "/>
</g>
<g clip-path="url(#clip5)" clip-rule="nonzero">
<path style=" stroke:none;fill-rule:nonzero;fill:rgb(95.289612%,73.329163%,34.899902%);fill-opacity:1;" d="M 150.753906 194.414062 L 137.59375 194.414062 L 137.59375 187.820312 L 150.753906 187.820312 L 150.753906 194.414062 "/>
</g>
</g>
</svg>
